<svg fill="none" height="32" viewBox="0 0 32 32" width="32" xmlns="http://www.w3.org/2000/svg"><path d="m4.72534 6.17464c-.06126.03881-.1192.0849-.17256.13827l-2.91 2.91c-.844679.84469-.850488 2.21469-.01743 3.06659l.01853.0202.09037.0982c.07923.0861.19576.2124.34547.374.29939.3233.73156.7879 1.26356 1.3544 1.06373 1.1327 2.5279 2.674 4.12865 4.3074 3.16827 3.2328 6.97267 6.9322 9.23967 8.456 2.5534 1.7245 4.8737 2.6956 6.5678 3.2367.8471.2705 1.5381.4338 2.0242.53.243.0482.435.0796.5698.0994.0674.0098.1205.0168.1586.0215l.0347.0041c.6752.1062 1.2721.126 1.8038.015.5688-.1187 1.0141-.3769 1.3765-.7393l.7-.7c.052-.052.0973-.1087.1359-.1691.265-.2405.4864-.5264.6531-.8454.2285-.4372.3475-.9233.3469-1.4166-.117-1.293-1.337-2.04-2.417-2.7-.5436-.2695-1.0288-.6432-1.428-1.1l-.7951-1.856h.0071c.58 0 1.05-.47 1.05-1.05s-.47-1.05-1.05-1.05h-.9068l-.6444-1.5043c.3875-.1545.6612-.533.6612-.9757 0-.58-.47-1.05-1.05-1.05h-.479l-.5317-1.2411c.5571-.0258 1.0007-.4854 1.0007-1.0489 0-.58-.47-1.05-1.05-1.05h-.8498l-.4112-.96c-.062-.15-.1-.258-.132-.35-.1333-.4369-.3821-.8297-.72-1.137l-.52-.521c-.2418-.23284-.5323-.4036-.847-.5023v-.44968c-.6252-1.88488-2.9047-2.54209-4.4336-1.39479l-2.1284-2.17023c.1913-.19308.3426-.42207.4451-.6738.1025-.25174.1543-.52125.1524-.79306-.002-.27181-.0576-.54056-.1638-.79079-.1061-.25024-.2607-.47703-.4547-.66735-.5835-.58152-1.3737-.908057-2.1975-.908057s-1.61405.326537-2.19754.908057zm9.46196 9.18046.0025-.7451c0-1.7-.66-3.32-1.84-4.53l-4.30966-4.39574 2.36476-2.36826c.1062-.10663.2339-.18938.3746-.24271.1408-.05334.2913-.07603.4415-.06656.1502.00946.2967.05087.4296.12144.1329.07058.2493.16871.3413.28783-.3833.38526-.5984.90658-.5984 1.45s.2151 1.06474.5984 1.45l4.43 4.442c.4001.3857.9342.6012 1.49.6012.5557 0 1.0898-.2155 1.49-.6012l.52.52c.1219.0952.2082.2287.245.379l.0033.0095c.0433.1242.0959.2746.1797.4695l.0745.174h-.9445c-.58 0-1.05.47-1.05 1.05 0 .29.12.55.31.74s.46.31.74.31h1.844l.5311 1.24h-.7851c-.58 0-1.05.47-1.05 1.05 0 .29.12.55.31.74s.46.31.74.31h1.6846l.6125 1.43h-.9772c-.58 0-1.05.47-1.05 1.05 0 .29.12.55.31.74s.45.3.74.31h1.8767l1.1334 2.646c.5231.8793 1.2992 1.5805 2.227 2.012l.0027.0017c.5037.3074 1.4383.8778 1.4633 1.1623 0 .0557-.0547.227-.305.507-.2815-.0344-.6659-.0886-1.1258-.1715-1.0258-.185-2.4137-.5106-3.8708-1.0709-2.9418-1.1311-5.9833-3.1423-7.1187-6.7006l-.0006-.0018c-.4048-1.2603-1.3179-2.7272-2.3764-4.163-.0359-.0487-.072-.0974-.1083-.1461zm-11.13261-4.4645c-.02429-.0302-.03755-.0678-.03755-.1066 0-.0394.01369-.0776.03872-.108l2.23303-2.23638c.19977.19591.4355.42893.69973.69335.86279.8634 2.0263 2.05853 3.23181 3.38763 1.20747 1.3312 2.44637 2.7851 3.46527 4.1673 1.0346 1.4034 1.7814 2.6524 2.0818 3.587.047.1473.0966.2924.1488.4351l-11.85914-9.8169c-.00006-.0001.00005 0 0 0-.00078-.0008-.00171-.0017-.00247-.0025z" fill="#b87325"/></svg>